<?xml version="1.0" encoding="UTF-8" standalone="no"?>
<!-- Created with Inkscape (http://www.inkscape.org/) -->

<svg
   width="210mm"
   height="297mm"
   viewBox="0 0 210 297"
   version="1.1"
   id="svg1"
   xml:space="preserve"
   inkscape:version="1.3 (0e150ed6c4, 2023-07-21)"
   sodipodi:docname="logo.svg"
   xmlns:inkscape="http://www.inkscape.org/namespaces/inkscape"
   xmlns:sodipodi="http://sodipodi.sourceforge.net/DTD/sodipodi-0.dtd"
   xmlns="http://www.w3.org/2000/svg"
   xmlns:svg="http://www.w3.org/2000/svg"><sodipodi:namedview
     id="namedview1"
     pagecolor="#ffffff"
     bordercolor="#000000"
     borderopacity="0.25"
     inkscape:showpageshadow="2"
     inkscape:pageopacity="0.0"
     inkscape:pagecheckerboard="0"
     inkscape:deskcolor="#d1d1d1"
     inkscape:document-units="mm"
     inkscape:zoom="0.39732043"
     inkscape:cx="-142.20261"
     inkscape:cy="913.62028"
     inkscape:window-width="1920"
     inkscape:window-height="1130"
     inkscape:window-x="-6"
     inkscape:window-y="-6"
     inkscape:window-maximized="1"
     inkscape:current-layer="layer1" /><defs
     id="defs1" /><g
     inkscape:label="Ebene 1"
     inkscape:groupmode="layer"
     id="layer1"><path
       style="fill:#000000"
       id="path1" /><path
       style="fill:#000000;stroke-width:0.817113"
       d="m 81.825658,294.3308 c -1.418158,-0.34682 -5.317365,-2.15427 -7.783004,-3.60776 -6.852419,-4.03949 -13.852466,-11.04366 -18.162942,-18.17361 -1.529229,-2.52947 -3.701925,-7.05711 -4.737739,-9.87286 -0.364513,-0.99091 -0.823029,-1.80163 -1.018931,-1.80163 -0.579783,0 -0.872146,3.16499 -0.852086,9.22429 0.01487,4.49585 0.154425,6.43373 0.697078,9.68082 l 0.678474,4.05975 -2.015654,4.01151 c -2.384043,4.74465 -3.430365,6.46171 -3.937563,6.46171 -0.204638,0 -2.181194,-1.19987 -4.392344,-2.6664 l -4.02027,-2.6664 -0.07713,-6.97555 c -0.101022,-9.13342 0.394331,-14.66079 2.126112,-23.72407 1.578377,-8.26043 4.596067,-18.91073 7.473377,-26.37574 3.367781,-8.73749 3.910638,-10.3196 3.635328,-10.59491 -0.389616,-0.38961 -2.031997,0.93484 -6.52769,5.26408 -5.162939,4.97178 -8.998509,8.34011 -11.775093,10.34063 -3.031466,2.18417 -7.942194,4.92 -9.196684,5.12358 -0.633288,0.10281 -2.448839,-0.211 -5.137437,-0.88787 -5.746619,-1.44674 -6.03171,-1.55128 -6.03171,-2.21171 0,-0.97155 3.348654,-9.37706 3.86828,-9.70983 0.171316,-0.1097 1.803222,-0.68983 3.626463,-1.28915 6.473827,-2.12805 12.414886,-5.53553 17.830753,-10.22681 1.37034,-1.187 3.269835,-2.82367 4.221094,-3.63704 0.95125,-0.81336 3.459029,-3.16639 5.572835,-5.22897 3.588108,-3.50113 5.257086,-5.52279 10.830077,-13.11856 1.105057,-1.50615 2.351171,-3.19246 2.769132,-3.74736 0.417961,-0.55491 2.285106,-3.14924 4.149204,-5.76519 1.864104,-2.61596 3.635279,-5.08057 3.935945,-5.47694 0.300665,-0.39635 2.178195,-3.15324 4.172287,-6.12643 3.494597,-5.21046 3.649285,-5.39275 4.280562,-5.04454 2.311589,1.27502 7.375793,4.74899 7.379854,5.06248 0.0025,0.20753 -0.99088,1.82898 -2.207918,3.60324 -10.044832,14.6438 -14.594119,22.41197 -19.836277,33.8716 -3.412044,7.45891 -4.915999,11.66329 -6.257658,17.49363 -0.616022,2.67697 -0.663332,3.52002 -0.663332,11.81864 0,8.17343 0.05728,9.23123 0.671152,12.39515 2.877579,14.83089 11.043916,25.72681 24.070558,32.11611 2.731201,1.33961 7.797201,3.19566 8.722369,3.19566 0.706012,0 0.441063,-0.58447 -0.496101,-1.09438 -2.744316,-1.49318 -7.58517,-4.97375 -9.428144,-6.77882 -7.31868,-7.16815 -11.818442,-15.24191 -13.926782,-24.98837 -0.588068,-2.7185 -0.653902,-3.78993 -0.646549,-10.52147 0.0074,-7.01379 0.05859,-7.74055 0.794136,-11.32527 2.991427,-14.57953 9.741053,-27.5756 24.781614,-47.71574 0.978134,-1.30977 2.297289,-3.11584 2.93146,-4.01348 0.63417,-0.89764 1.323715,-1.6383 1.532316,-1.64591 0.463131,-0.0169 1.161584,0.34131 3.22397,1.65339 5.40001,3.43546 5.51472,3.52476 5.31933,4.1404 -0.10365,0.3266 -1.26084,2.36399 -2.571526,4.52752 -8.471953,13.98467 -12.694117,23.29208 -14.282471,31.48459 -0.548609,2.82963 -0.616626,3.94172 -0.500522,8.18414 0.150938,5.5156 0.736227,8.13839 2.675474,11.98922 2.072992,4.11641 7.235653,8.51313 11.618878,9.8951 1.203237,0.37936 2.236857,0.83719 2.296937,1.01742 0.06,0.18021 -0.35295,0.83924 -0.91783,1.46448 -0.56486,0.62525 -1.434303,1.94362 -1.93208,2.92971 -0.796335,1.57754 -0.907429,2.08925 -0.924915,4.26035 -0.01561,1.93527 0.12532,2.83893 0.653281,4.18974 0.81664,2.08937 3.007784,4.51116 5.050694,5.58231 1.44032,0.7552 1.45149,0.7562 10.2338,0.92053 8.19992,0.15344 8.90147,0.2078 10.41907,0.80742 2.9264,1.15621 5.08083,3.17637 6.19925,5.81283 2.65019,6.24744 -1.37795,13.31097 -8.23111,14.43363 -1.89446,0.31034 -38.681634,0.30767 -39.951621,-0.002 z M 124.9103,283.95464 c 0.16413,-0.30667 0.29627,-1.18226 0.29365,-1.94576 -0.0119,-3.48862 -3.23345,-5.90474 -6.64741,-4.98544 -1.32563,0.35695 -3.28108,2.0442 -3.07915,2.65681 0.076,0.23042 0.90472,0.41841 2.25924,0.51244 2.93391,0.20365 4.25477,0.99882 5.61895,3.38268 0.60956,1.06517 1.12089,1.1899 1.55472,0.37927 z m -34.580988,-9.11312 c 0,-0.21159 -0.745877,-0.96201 -1.657497,-1.66761 -2.088108,-1.61622 -5.788079,-5.48108 -7.855063,-8.20513 -3.892834,-5.1303 -7.816604,-13.11265 -9.805597,-19.94811 -0.346006,-1.18908 -0.676978,-2.3241 -0.7355,-2.52228 -0.0585,-0.19817 -0.297502,-0.36031 -0.531075,-0.36031 -0.459822,0 -0.431574,1.36826 0.13984,6.77408 0.880988,8.33447 4.021669,16.72075 7.751678,20.69862 2.135999,2.27792 3.433428,3.21551 6.031575,4.3587 1.826723,0.80376 5.608847,1.63598 6.30131,1.38654 0.198181,-0.0714 0.360329,-0.30292 0.360329,-0.5145 z m -79.291702,9.56479 c -5.4496391,-1.46938 -8.9253532,-6.6926 -8.5674576,-12.87497 0.1937703,-3.34726 1.2713139,-5.35314 4.4907895,-8.35971 2.0225596,-1.8888 3.4377351,-2.86403 7.2678881,-5.00842 5.479962,-3.0681 9.120488,-5.16472 13.928799,-8.02181 1.929835,-1.14669 3.51331,-1.91467 3.651721,-1.77105 0.134603,0.13965 -0.198992,2.39017 -0.742616,5.00983 -0.542851,2.61596 -1.823986,8.88751 -2.846963,13.93677 -1.11553,5.50609 -2.117459,9.7172 -2.503316,10.52147 -0.869785,1.81298 -3.782737,4.66799 -5.722441,5.60863 -2.714753,1.3165 -6.233693,1.69338 -8.956404,0.95926 z m 0.930128,-10.96879 c 0.12644,-2.50392 0.925291,-3.89643 2.980618,-5.19558 0.714058,-0.45136 1.298285,-0.99832 1.298285,-1.21548 0,-0.69665 -1.776901,-1.53714 -3.252176,-1.5383 -3.2281362,-0.002 -5.3956027,2.15143 -5.3956027,5.36197 0,1.54663 0.8390282,3.31368 1.9392223,4.08413 1.9087114,1.33663 2.2987024,1.09638 2.4296534,-1.49674 z M 144.6796,221.02307 c -0.29008,-0.9278 -0.73648,-3.47945 -1.0212,-5.83726 -0.17231,-1.42687 -0.57685,-4.21578 -0.89899,-6.19757 -0.32212,-1.98178 -0.69847,-4.51126 -0.83631,-5.62106 -0.13784,-1.10979 -0.58682,-4.15815 -0.99774,-6.7741 -0.4109,-2.61595 -0.9956,-6.50745 -1.29933,-8.64778 -0.30372,-2.14032 -0.75326,-5.04352 -0.99894,-6.45153 -0.24568,-1.40802 -0.44672,-2.86123 -0.44672,-3.22936 0,-0.92479 -0.59164,-2.13774 -1.04274,-2.13774 -0.20554,0 -1.10734,0.90802 -2.00404,2.01781 -0.89667,1.1098 -1.8427,2.01588 -2.10229,2.01352 -0.25959,-0.002 -3.31936,-1.95373 -6.79948,-4.33637 -4.01617,-2.74963 -6.54126,-4.30117 -6.91269,-4.24751 -0.89747,2.8299 -1.86079,7.14166 -4.11121,14.20039 -0.19775,0.62023 -5.66847,-3.55303 -9.60086,-6.10638 -1.34761,-0.87502 -5.952556,-3.86753 -10.233209,-6.65004 -4.280652,-2.78249 -8.49645,-5.50311 -9.368432,-6.04581 -5.564483,-3.46323 -11.157092,-7.05879 -11.334814,-7.44186 -0.394396,-0.85013 6.054647,-4.31706 9.751558,-7.98428 1.826601,-1.81191 1.238572,-2.24281 -1.288718,-3.93714 -6.010103,-4.02922 -10.387958,-7.31479 -10.387958,-7.79612 0,-0.29242 0.522257,-1.19236 1.160578,-1.99989 2.359979,-2.98559 2.073891,-3.82095 -1.11174,-3.24624 -1.057386,0.19077 -3.738556,0.66693 -5.958154,1.05816 -2.219598,0.39122 -5.851666,1.04317 -8.071266,1.44879 -2.219598,0.40561 -5.073366,0.9194 -6.341706,1.14176 -7.751309,1.35888 -12.599846,2.22483 -16.234048,2.89942 -2.269933,0.42135 -4.193761,0.69947 -4.275177,0.61807 -0.22541,-0.22542 0.40715,-1.27449 2.203909,-3.65503 2.756638,-3.65234 4.91765,-6.71911 11.15296,-15.82765 3.299626,-4.82009 6.59131,-9.61962 7.314855,-10.6656 0.723539,-1.04598 2.474718,-3.59108 3.891495,-5.65577 3.54306,-5.1633 3.383559,-4.96079 4.173839,-5.29944 0.389518,-0.16692 2.199955,-0.684671 4.023196,-1.150551 3.355861,-0.85749 10.404468,-2.781823 13.836451,-3.777454 1.030527,-0.298953 3.819428,-1.077656 6.197572,-1.73043 2.378142,-0.652773 6.075066,-1.685352 8.215397,-2.294593 7.798152,-2.219748 13.425262,-3.765447 14.343052,-3.939875 0.56564,-0.107499 1.29444,-0.583265 1.83294,-1.196586 0.8146,-0.927786 27.53637,-40.91225 33.9504,-50.800857 4.35176,-6.709179 4.72346,-7.240817 5.34711,-7.648082 0.58991,-0.38522 4.42224,-1.953833 9.09661,-3.723341 1.34761,-0.510148 6.73085,-2.647529 11.96276,-4.749732 21.38522,-8.592682 36.14243,-14.3075405 37.39687,-14.4822465 l 0.65337,-0.090996 0.17385,5.9093135 c 0.0956,3.250125 0.24733,6.103894 0.33714,6.341706 0.0898,0.237812 0.2458,11.981129 0.34663,26.096248 l 0.18334,25.663853 -19.07824,28.654523 -11.81584,17.74678 -7.2624,10.90773 0.34679,3.47763 c 0.19074,1.91271 0.46762,4.25594 0.61527,5.2072 0.14767,0.95125 0.53549,4.19417 0.86181,7.20649 1.56333,14.43057 2.48614,22.35577 3.12155,26.80812 0.15838,1.10979 0.37597,3.31784 0.48351,4.90677 0.18919,2.79489 0.17217,2.91689 -0.52265,3.74736 -0.39501,0.47214 -1.1847,1.57187 -1.75487,2.44385 -0.57017,0.87198 -3.76644,5.5418 -7.10284,10.37735 -3.3364,4.83556 -7.20748,10.47822 -8.60241,12.53928 -1.39494,2.06107 -3.12729,4.59053 -3.84966,5.62105 -0.72238,1.03054 -2.60294,3.75458 -4.17904,6.05346 -4.99307,7.28288 -4.8623,7.12301 -5.1291,6.26964 z m -10.19976,-59.02112 c 1.23983,-1.82323 3.66069,-5.39045 5.37972,-7.92714 1.71902,-2.53667 6.86525,-10.1251 11.43606,-16.86316 8.20062,-12.08895 42.92818,-64.240383 44.75942,-67.216571 0.51889,-0.84331 0.90804,-1.79273 0.86478,-2.109811 -0.0554,-0.406056 -4.25497,-3.368526 -14.20336,-10.019338 -7.7686,-5.193547 -16.50388,-10.965946 -19.41176,-12.827543 -2.90786,-1.861596 -6.33898,-4.065735 -7.62467,-4.898088 -1.28571,-0.832353 -2.50777,-1.513359 -2.71574,-1.513359 -0.20797,0 -0.85302,0.745869 -1.43345,1.65749 -4.18453,6.572058 -12.69227,19.533134 -21.30732,32.460562 -3.78869,5.685164 -7.34252,11.026121 -7.89742,11.868802 -1.27213,1.931877 -3.47708,5.131135 -10.52297,15.268264 -6.50101,9.353162 -23.180783,34.157772 -23.878264,35.509512 -0.440939,0.85458 -0.440236,0.95203 0.01012,1.4024 0.406678,0.40667 29.423824,19.81861 39.723904,26.57458 2.06818,1.35651 3.41357,2.05694 3.86879,2.01408 0.53834,-0.0506 1.21337,-0.8237 2.95216,-3.38068 z m -6.27696,-6.03012 c -1.27154,-0.57515 -29.511761,-19.3016 -30.595024,-20.28794 -0.445915,-0.40601 -0.648584,-0.9188 -0.648584,-1.64105 0,-0.89506 1.100317,-2.68959 7.436728,-12.12871 4.09018,-6.09302 7.86768,-11.66194 8.39441,-12.37539 0.52675,-0.71343 3.54696,-5.05895 6.7116,-9.656682 3.16462,-4.597741 5.97026,-8.600283 6.23474,-8.894569 0.43621,-0.485356 0.84214,-0.522006 4.37236,-0.394711 3.58487,0.129276 4.22084,0.2419 8.07126,1.429463 2.29887,0.709027 5.45571,1.528706 7.01518,1.82149 l 2.83542,0.532372 4.08281,-1.382213 c 2.24555,-0.760219 5.25027,-1.809855 6.67714,-2.332543 5.31894,-1.948379 16.29019,-2.879734 16.7743,-1.423976 0.0885,0.266159 -13.94282,21.522389 -23.29565,35.290869 -1.66931,2.4574 -6.94308,10.24042 -11.71949,17.29555 -4.77642,7.05516 -8.98235,13.17309 -9.34649,13.59542 -0.90732,1.05227 -1.61,1.18169 -3.00071,0.55262 z m -6.52536,-24.07875 c 1.81606,-1.96692 1.01372,-5.08954 -1.5228,-5.92667 -2.22461,-0.73418 -4.45858,0.99218 -4.45858,3.44548 0,3.35846 3.73925,4.90957 5.98138,2.48119 z m 14.79547,-1.57748 c 0.57508,-0.57508 0.84261,-1.13126 0.84261,-1.75174 0,-1.31507 -1.35032,-2.59434 -2.73847,-2.59434 -0.7895,0 -1.27316,0.21991 -1.9314,0.87816 -0.75876,0.75874 -0.85505,1.02331 -0.70821,1.94575 0.36533,2.29507 2.9089,3.14873 4.53547,1.52217 z m -2.41655,-12.94586 c 5.9605,-3.05533 5.7549,-11.71897 -0.34409,-14.49919 -1.45504,-0.6633 -4.4593,-0.70271 -6.27981,-0.0824 -1.66602,0.56767 -3.53439,2.34713 -4.31664,4.1112 -0.73151,1.64967 -0.801,4.86896 -0.13874,6.427 0.85477,2.01087 2.94921,3.89871 5.11226,4.60796 1.29529,0.42473 4.65771,0.10659 5.96702,-0.56458 z m 16.60548,-5.12624 c 2.14376,-1.08315 3.16683,-2.65536 3.16683,-4.86671 0,-2.5157 -1.47086,-4.34396 -4.04593,-5.02907 -2.19181,-0.58313 -4.97566,0.63403 -6.00564,2.62579 -0.58689,1.13491 -0.60831,3.63161 -0.0405,4.72344 1.31504,2.52881 4.58238,3.73027 6.92524,2.54655 z"
       id="path2"
       sodipodi:nodetypes="csssssscssscsssssssssssssssssssscssssssssssccssssssssssssssssssssccsssssssssssssssssssssssssssssssscssssssssssssscscssssssssssssssssssssssssssssscscccsccccssssssssssssssssssssscssssssssssssssssssscsssssssssssssssssssssssssssssss" /></g></svg>
