<?xml version="1.0" encoding="UTF-8" standalone="no"?>
<!-- Created with Inkscape (http://www.inkscape.org/) -->

<svg
   width="297mm"
   height="210mm"
   viewBox="0 0 297 210"
   version="1.1"
   id="svg1"
   xml:space="preserve"
   inkscape:version="1.3 (0e150ed6c4, 2023-07-21)"
   sodipodi:docname="logo_and_text.svg"
   xmlns:inkscape="http://www.inkscape.org/namespaces/inkscape"
   xmlns:sodipodi="http://sodipodi.sourceforge.net/DTD/sodipodi-0.dtd"
   xmlns="http://www.w3.org/2000/svg"
   xmlns:svg="http://www.w3.org/2000/svg"><sodipodi:namedview
     id="namedview1"
     pagecolor="#ffffff"
     bordercolor="#000000"
     borderopacity="0.25"
     inkscape:showpageshadow="2"
     inkscape:pageopacity="0.0"
     inkscape:pagecheckerboard="0"
     inkscape:deskcolor="#d1d1d1"
     inkscape:document-units="mm"
     inkscape:zoom="0.56189594"
     inkscape:cx="394.20111"
     inkscape:cy="681.62088"
     inkscape:window-width="1920"
     inkscape:window-height="1130"
     inkscape:window-x="-6"
     inkscape:window-y="-6"
     inkscape:window-maximized="1"
     inkscape:current-layer="layer1" /><defs
     id="defs1" /><g
     inkscape:label="Ebene 1"
     inkscape:groupmode="layer"
     id="layer1"><path
       style="fill:#000000"
       id="path1"
       d="" /><path
       style="fill:#000000;stroke-width:0.58082"
       d="m 138.88223,208.16183 c -1.00807,-0.24648 -3.77971,-1.53126 -5.53232,-2.56446 -4.87086,-2.87133 -9.84664,-7.85006 -12.91063,-12.91816 -1.087,-1.79799 -2.6314,-5.01636 -3.36767,-7.01784 -0.25912,-0.70436 -0.58504,-1.28064 -0.72429,-1.28064 -0.4121,0 -0.61994,2.24969 -0.60569,6.55681 0.0107,3.19574 0.10972,4.5732 0.49549,6.88133 l 0.48231,2.88573 -1.43277,2.85151 c -1.69463,3.37261 -2.43837,4.5931 -2.79891,4.5931 -0.14543,0 -1.55044,-0.85287 -3.12216,-1.89532 l -2.8577,-1.89531 -0.0551,-4.95839 c -0.0718,-6.49223 0.28027,-10.42121 1.51128,-16.86358 1.12195,-5.87172 3.26698,-13.44219 5.31224,-18.74845 2.39389,-6.21084 2.77977,-7.33537 2.58408,-7.53112 -0.27694,-0.27693 -1.44439,0.66455 -4.64003,3.74186 -3.66994,3.53406 -6.39635,5.92831 -8.37,7.35033 -2.15483,1.55254 -5.645483,3.49724 -6.537196,3.64199 -0.450181,0.073 -1.740694,-0.15014 -3.651806,-0.63118 -4.084824,-1.02838 -4.287467,-1.10262 -4.287467,-1.57215 0,-0.69052 2.380288,-6.66535 2.749653,-6.90191 0.121788,-0.078 1.281769,-0.49049 2.577769,-0.9164 4.601738,-1.51262 8.824767,-3.93474 12.674487,-7.2694 0.97406,-0.84376 2.32426,-2.00711 3.00044,-2.58527 0.67618,-0.57795 2.45877,-2.25079 3.9613,-3.71691 2.55051,-2.48865 3.73685,-3.9257 7.69826,-9.32493 0.7855,-1.07062 1.67126,-2.26925 1.96835,-2.66367 0.29708,-0.3948 1.62431,-2.2386 2.94935,-4.09807 1.32504,-1.85946 2.58404,-3.61137 2.79776,-3.89314 0.21374,-0.28198 1.54831,-2.24137 2.96574,-4.35474 2.48404,-3.70374 2.59399,-3.83332 3.04271,-3.58581 1.64313,0.90632 5.24289,3.37571 5.24577,3.59853 0.001,0.14757 -0.70435,1.3001 -1.56944,2.56128 -7.14008,10.40911 -10.37382,15.93091 -14.10005,24.07664 -2.42536,5.30197 -3.4944,8.29056 -4.44808,12.43489 -0.43788,1.90279 -0.47153,2.50208 -0.47153,8.40093 0,5.80986 0.0405,6.56173 0.47705,8.81073 2.04544,10.54215 7.85024,18.28719 17.10987,22.82883 1.9414,0.95222 5.54242,2.27149 6.20005,2.27149 0.50183,0 0.31348,-0.4157 -0.35266,-0.77783 -1.95072,-1.06139 -5.3917,-3.53549 -6.70173,-4.81859 -5.20227,-5.09526 -8.4008,-10.83427 -9.89946,-17.76225 -0.41798,-1.93239 -0.46481,-2.69395 -0.45955,-7.47889 0.005,-4.98557 0.0418,-5.50215 0.5645,-8.05027 2.12637,-10.3634 6.92415,-19.60132 17.6153,-33.91739 0.69528,-0.93096 1.63296,-2.21477 2.08374,-2.85284 0.45077,-0.63809 0.94094,-1.16456 1.08921,-1.16992 0.3292,-0.0134 0.82569,0.24265 2.29167,1.17523 3.83845,2.44203 3.91997,2.50547 3.7811,2.94308 -0.0737,0.23195 -0.89624,1.68037 -1.82792,3.21825 -6.02203,9.94062 -9.02324,16.55655 -10.15229,22.37992 -0.38997,2.01142 -0.43833,2.80191 -0.35574,5.8175 0.10733,3.92059 0.52331,5.78495 1.90179,8.52219 1.47352,2.92604 5.14325,6.05132 8.25895,7.03368 0.8553,0.26995 1.59,0.59504 1.6327,0.72318 0.0425,0.12789 -0.25088,0.59631 -0.6524,1.04096 -0.40151,0.44424 -1.01956,1.3816 -1.37337,2.08253 -0.56608,1.12133 -0.64503,1.48508 -0.65744,3.02833 -0.0121,1.37563 0.0891,2.01799 0.46436,2.97818 0.58047,1.48518 2.13799,3.20663 3.59014,3.96802 1.02382,0.53674 1.03176,0.53738 7.27441,0.65434 5.82869,0.10902 6.32737,0.14758 7.4061,0.57414 2.08016,0.82192 3.61157,2.25788 4.40656,4.13191 1.88383,4.44082 -0.97949,9.46176 -5.85084,10.25975 -1.34664,0.22049 -27.49576,0.2187 -28.39847,-0.001 z m 30.62549,-7.37553 c 0.11662,-0.21793 0.21059,-0.84043 0.20875,-1.38314 -0.008,-2.47976 -2.29841,-4.1972 -4.72512,-3.54374 -0.94229,0.25335 -2.33227,1.45306 -2.18873,1.88853 0.0539,0.16364 0.64309,0.29719 1.60592,0.36439 2.08547,0.14452 3.02439,0.70991 3.99406,2.40444 0.43327,0.75713 0.79676,0.8458 1.10515,0.26931 z m -24.58092,-6.47786 c 0,-0.15013 -0.53015,-0.68385 -1.17818,-1.18533 -1.48427,-1.14883 -4.1143,-3.89611 -5.58355,-5.83244 -2.76712,-3.64667 -5.55621,-9.32075 -6.97003,-14.1795 -0.24594,-0.84521 -0.48123,-1.65206 -0.5228,-1.7929 -0.0418,-0.14071 -0.21146,-0.25603 -0.37749,-0.25603 -0.32686,0 -0.30678,0.97259 0.0994,4.81523 0.62622,5.92432 2.85868,11.88542 5.51007,14.713 1.5183,1.61915 2.44054,2.28562 4.28735,3.09826 1.29848,0.57098 3.98689,1.1629 4.47911,0.9856 0.14089,-0.0506 0.25614,-0.21537 0.25614,-0.36564 z m -56.362251,6.79889 c -3.87372,-1.04449 -6.344337,-4.75724 -6.089933,-9.15182 0.137715,-2.37927 0.90368,-3.80511 3.192151,-5.94224 1.437679,-1.34263 2.443617,-2.03582 5.166172,-3.56013 3.895272,-2.18086 6.48304,-3.6712 9.900891,-5.70207 1.37177,-0.81505 2.49734,-1.361 2.59571,-1.2589 0.0957,0.0994 -0.14143,1.69901 -0.52785,3.56113 -0.38587,1.85946 -1.29653,6.3174 -2.0237,9.90652 -0.792934,3.91386 -1.505127,6.90718 -1.779405,7.47892 -0.618234,1.28868 -2.688849,3.31811 -4.067628,3.98671 -1.929712,0.93579 -4.431051,1.2037 -6.366408,0.68188 z m 0.661156,-7.79686 c 0.08985,-1.77985 0.657716,-2.76968 2.118685,-3.69312 0.507593,-0.32064 0.92285,-0.70968 0.92285,-0.86404 0,-0.49491 -1.263057,-1.09263 -2.311719,-1.09344 -2.294627,-0.001 -3.835309,1.52931 -3.835309,3.81144 0,1.09933 0.596371,2.35539 1.378444,2.9031 1.356753,0.95009 1.633963,0.77932 1.727049,-1.06394 z M 183.56018,156.0531 c -0.20621,-0.65948 -0.52352,-2.47325 -0.72589,-4.14919 -0.12256,-1.0143 -0.41007,-2.99669 -0.63905,-4.4054 -0.22888,-1.40864 -0.49648,-3.20671 -0.59446,-3.99553 -0.0978,-0.78891 -0.4171,-2.95575 -0.70923,-4.81523 -0.29206,-1.85945 -0.70767,-4.62562 -0.92358,-6.147 -0.2159,-1.52137 -0.53543,-3.58507 -0.71007,-4.58586 -0.17461,-1.00088 -0.31754,-2.03385 -0.31754,-2.29552 0,-0.65741 -0.42051,-1.51954 -0.74119,-1.51954 -0.14605,0 -0.78715,0.64543 -1.42451,1.43425 -0.63739,0.78888 -1.30986,1.43299 -1.49436,1.43129 -0.18455,-0.001 -2.35948,-1.38877 -4.83322,-3.08239 -2.85479,-1.95451 -4.64968,-3.05733 -4.9137,-3.01926 -0.63794,2.0116 -1.3227,5.0765 -2.92233,10.094 -0.14056,0.44104 -4.02928,-2.52561 -6.82451,-4.34059 -0.95791,-0.62229 -4.2312,-2.74912 -7.27399,-4.72695 -3.04277,-1.9779 -6.03946,-3.91175 -6.65929,-4.29754 -3.95534,-2.46173 -7.93069,-5.01749 -8.05702,-5.28978 -0.28035,-0.60455 4.30378,-3.06871 6.93162,-5.67542 1.29839,-1.28797 0.8804,-1.59425 -0.91604,-2.7986 -4.27211,-2.86407 -7.38399,-5.199561 -7.38399,-5.541689 0,-0.20774 0.37121,-0.847495 0.82497,-1.421556 1.67751,-2.122192 1.47416,-2.715972 -0.79026,-2.307499 -0.7516,0.135582 -2.65744,0.474009 -4.23518,0.752193 -1.57773,0.278209 -4.15949,0.741496 -5.73722,1.029823 -1.57775,0.288364 -3.60627,0.65354 -4.50783,0.811579 -5.5098,0.965963 -8.95624,1.581464 -11.53952,2.060985 -1.61351,0.299736 -2.98101,0.497466 -3.03889,0.439142 -0.16019,-0.160331 0.28942,-0.905915 1.5666,-2.598094 1.95947,-2.596127 3.49557,-4.77604 7.92777,-11.250602 2.34543,-3.426207 4.68524,-6.837848 5.19955,-7.581358 0.51431,-0.743546 1.75908,-2.552601 2.76616,-4.020252 2.51848,-3.670213 2.40511,-3.526224 2.96685,-3.766973 0.27686,-0.118553 1.56378,-0.486672 2.85978,-0.81785 2.38541,-0.609616 7.39571,-1.97731 9.83524,-2.685037 0.73252,-0.212323 2.71493,-0.766063 4.40536,-1.230073 1.69044,-0.463854 4.31829,-1.197945 5.83968,-1.630997 5.54311,-1.577858 9.54298,-2.676619 10.19536,-2.800575 0.40208,-0.0767 0.92012,-0.414431 1.30289,-0.850534 0.57901,-0.659497 19.57347,-29.081368 24.13267,-36.110382 3.09335,-4.769033 3.35756,-5.146909 3.80087,-5.43643 0.41931,-0.273782 3.1434,-1.388836 6.46604,-2.646576 0.95794,-0.362487 4.78445,-1.881961 8.50339,-3.376217 15.20108,-6.1079156 25.69082,-10.1701745 26.58252,-10.294324 l 0.46443,-0.064523 0.12363,4.2004467 c 0.068,2.3102729 0.17587,4.3388033 0.23959,4.5078173 0.0638,0.169244 0.1746,8.516444 0.24648,18.549769 l 0.1303,18.242411 -13.56124,20.368256 -8.39894,12.614826 -5.16229,7.753432 0.24647,2.472003 c 0.13561,1.359589 0.33238,3.025199 0.43737,3.701352 0.10505,0.676213 0.38066,2.981372 0.61259,5.122556 1.11126,10.25756 1.76721,15.89099 2.21889,19.05581 0.11264,0.78882 0.26721,2.35837 0.34371,3.4878 0.13458,1.98671 0.12242,2.0734 -0.37155,2.66377 -0.28079,0.33583 -0.84211,1.11727 -1.2474,1.73709 -0.40533,0.61974 -2.67727,3.93923 -5.04885,7.37649 -2.37157,3.43717 -5.12322,7.44809 -6.11478,8.91316 -0.99154,1.46504 -2.22296,3.26302 -2.73643,3.99557 -0.51346,0.7325 -1.85021,2.66882 -2.97055,4.30293 -3.54918,5.17681 -3.45622,5.0632 -3.64586,4.45655 z m -7.25024,-41.95345 c 0.88131,-1.29599 2.6021,-3.83166 3.82404,-5.63478 1.2219,-1.80314 4.87998,-7.19716 8.12898,-11.986707 5.82919,-8.593075 30.51429,-45.663454 31.81598,-47.778988 0.36883,-0.599485 0.64544,-1.274299 0.61469,-1.499719 -0.0393,-0.288967 -3.02453,-2.394418 -10.09605,-7.121927 -5.52211,-3.691668 -11.73133,-7.794884 -13.79832,-9.118112 -2.06696,-1.323264 -4.50588,-2.890039 -5.41976,-3.481661 -0.91393,-0.591838 -1.78259,-1.075749 -1.93042,-1.075749 -0.14784,0 -0.60633,0.530392 -1.01895,1.178166 -2.97442,4.671561 -9.02192,13.884588 -15.14569,23.073699 -2.69306,4.041153 -5.21921,7.837578 -5.61365,8.436616 -0.90426,1.373218 -2.47159,3.647322 -7.47995,10.853033 -4.62106,6.648352 -16.47741,24.280064 -16.9732,25.240878 -0.31341,0.607722 -0.31291,0.676743 0.007,0.996886 0.28908,0.288954 20.91509,14.087465 28.23659,18.889765 1.47012,0.96425 2.42643,1.46214 2.75001,1.43166 0.38269,-0.038 0.86249,-0.58557 2.09847,-2.40306 z m -4.46178,-4.28633 c -0.90384,-0.40874 -20.9776,-13.720003 -21.7476,-14.421133 -0.31699,-0.288327 -0.46102,-0.653093 -0.46102,-1.166516 0,-0.636184 0.78212,-1.911774 5.28619,-8.62132 2.90738,-4.331013 5.5925,-8.289519 5.96692,-8.796681 0.37445,-0.50697 2.52125,-3.596054 4.77074,-6.864149 2.24949,-3.268253 4.24379,-6.113294 4.4318,-6.322481 0.31006,-0.345373 0.5986,-0.371339 3.10797,-0.28073 2.5482,0.0919 3.00025,0.1718 5.73722,1.016135 1.6341,0.503786 3.87804,1.086615 4.98655,1.294717 l 2.01548,0.378322 2.90215,-0.982498 c 1.59619,-0.540534 3.732,-1.286516 4.74625,-1.658072 3.78083,-1.384929 11.57943,-2.046971 11.92353,-1.012119 0.0627,0.189372 -9.91086,15.298522 -16.55905,25.085468 -1.18657,1.7468 -4.93529,7.279122 -8.33046,12.294066 -3.3952,5.014981 -6.38486,9.363721 -6.6437,9.663901 -0.64494,0.74802 -1.14441,0.83996 -2.13295,0.39288 z m -4.63837,-17.115674 c 1.29089,-1.398195 0.72058,-3.617774 -1.08245,-4.212844 -1.58129,-0.522166 -3.16925,0.705254 -3.16925,2.449111 0,2.387291 2.65794,3.48985 4.2517,1.763733 z m 10.51694,-1.121325 c 0.40879,-0.40875 0.59897,-0.804173 0.59897,-1.245161 0,-0.934823 -0.95984,-1.844139 -1.94656,-1.844139 -0.56122,0 -0.90501,0.156507 -1.37288,0.624208 -0.53934,0.53928 -0.60777,0.72741 -0.50342,1.383108 0.25971,1.631382 2.06771,2.238152 3.22393,1.081984 z M 176.009,82.374125 c 4.23684,-2.171796 4.09068,-8.33015 -0.2447,-10.306326 -1.03426,-0.471489 -3.16975,-0.499336 -4.46383,-0.05705 -1.18423,0.403673 -2.51231,1.668408 -3.06834,2.922373 -0.51995,1.172582 -0.56938,3.460941 -0.0986,4.568459 0.60759,1.429359 2.09637,2.771281 3.6339,3.275392 0.9207,0.30163 3.31079,0.07586 4.24148,-0.401152 z m 11.80352,-3.643875 c 1.52385,-0.769898 2.25107,-1.887485 2.25107,-3.459373 0,-1.788168 -1.04553,-3.087733 -2.87595,-3.574755 -1.55798,-0.414418 -3.53681,0.450563 -4.26894,1.866487 -0.41715,0.806707 -0.43237,2.581378 -0.0286,3.357548 0.93479,1.797478 3.25728,2.651499 4.92264,1.810093 z"
       id="path2"
       sodipodi:nodetypes="csssssscssscsssssssssssssssssssscssssssssssccssssssssssssssssssssccsssssssssssssssssssssssssssssssscssssssssssssscscssssssssssssssssssssssssssssscscccsccccssssssssssssssssssssscssssssssssssssssssscsssssssssssssssssssssssssssssss" /><text
       xml:space="preserve"
       style="font-size:9.63919px;white-space:pre;inline-size:58.9446;fill:#ffffff;stroke:#440525;stroke-width:0.364912"
       x="77.668793"
       y="264.7294"
       id="text2"
       transform="matrix(5.7392833,0,0,5.7392833,-431.01442,-1356.8289)"><tspan
         x="77.668793"
         y="264.7294"
         id="tspan3"><tspan
           style="font-family:Haettenschweiler;-inkscape-font-specification:Haettenschweiler"
           id="tspan1">Waterrocketpy</tspan></tspan></text></g></svg>
